<svg id="Layer_1" data-name="Layer 1" xmlns="http://www.w3.org/2000/svg" viewBox="0 0 1024 1024"><defs><style>.cls-1{fill:#aceae8;}</style></defs><title>Artboard 1</title><path class="cls-1" d="M740.89,756H656.81l74.87-385c2.39-.23,4.36-.6,6.34-.6,54.21,0,108.43-.43,162.64.31a199.88,199.88,0,0,1,45.83,6.17c48.37,12.26,77,48.11,77.5,97.9.56,58.53-20.85,107.48-67.27,144.58-30.08,24.05-65.32,32.46-102.65,33.7-28.26.94-56.56.53-84.85.39-6,0-8.74,1.32-9.94,7.93C753.58,692.71,747.18,724,740.89,756Zm31.64-162.23c29.3-1.15,56.58-.86,83.55-3.62,35.22-3.61,60.27-22.65,70.64-57.12a213.71,213.71,0,0,0,8.86-51.27c1.23-27.24-10.24-42.68-37.26-46.38-30.76-4.23-62.11-4.17-93.83-6C793.71,484.83,783.35,538.1,772.53,593.77Z"/><path class="cls-1" d="M84.07,755.86H0C25,627.38,49.84,499.44,74.81,371c2.8-.23,5.38-.63,8-.63,53.2,0,106.41-.4,159.6.29a202,202,0,0,1,44.88,5.68c47.92,11.7,75.56,42,79.2,91,7.11,95.57-56.82,163-120.06,178.42a270,270,0,0,1-51.81,7.19c-27.56,1.24-55.21.62-82.82.48-5.69,0-8.13,1.44-9.24,7.51C96.75,692.32,90.4,723.61,84.07,755.86Zm31.6-162.1c29.11-1.14,56.39-.82,83.37-3.59,36.13-3.7,61.24-23.46,71.41-58.9a214.6,214.6,0,0,0,8.29-49.36c1.17-27.24-10.25-42.81-37.18-46.51-30.77-4.23-62.14-4.19-93.92-6C136.86,484.81,126.49,538.1,115.67,593.76Z"/><path class="cls-1" d="M425.17,268h83.42c-6.6,34.2-13.07,67.79-19.73,102.32,22.67,0,44.55-.76,66.35.22,22.1,1,44.59,1.52,66.09,6.09,45.43,9.66,64.54,39.17,56.39,85.59-9.23,52.62-19.92,105-30,157.47-1.77,9.24-3.24,18.56-5.57,27.66-.62,2.41-3.94,5.85-6.07,5.88-26.18.4-52.37.26-79.68.26,4.91-25.49,9.61-49.82,14.27-74.17,6.76-35.32,13.94-70.56,20.06-106,4.48-25.91-5.53-38.75-31.93-39.91-26.85-1.17-53.8-.26-82.19-.26q-21.3,109.27-42.8,219.66H350.36C375.33,524.42,400.19,396.54,425.17,268Z"/></svg>